<?xml version="1.0" standalone="no"?>
<!DOCTYPE svg PUBLIC "-//W3C//DTD SVG 20010904//EN"
 "http://www.w3.org/TR/2001/REC-SVG-20010904/DTD/svg10.dtd">
<svg version="1.0" xmlns="http://www.w3.org/2000/svg"
 width="155.000000pt" height="155.000000pt" viewBox="0 0 155.000000 155.000000"
 preserveAspectRatio="xMidYMid meet">
<metadata>
Created by potrace 1.11, written by Peter Selinger 2001-2013
</metadata>
<g transform="translate(0.000000,155.000000) scale(0.100000,-0.100000)"
fill="#000000" stroke="none">
<path d="M677 1433 c-11 -3 -16 -10 -13 -20 3 -8 6 -21 6 -29 0 -9 11 -14 29
-14 25 0 30 4 29 23 -2 23 -16 48 -27 46 -3 -1 -14 -3 -24 -6z"/>
<path d="M742 1408 l3 -32 70 -3 c39 -2 84 -5 100 -6 23 -2 30 2 29 16 -1 9 3
17 8 17 6 0 8 -11 6 -25 -6 -31 5 -32 33 -4 23 23 17 35 -21 43 -14 2 -33 7
-42 11 -13 5 -20 1 -27 -16 -10 -24 -10 -24 -10 4 -1 27 -21 40 -21 12 0 -8
-4 -15 -10 -15 -5 0 -10 6 -10 14 0 10 -15 14 -56 15 l-55 0 3 -31z"/>
<path d="M595 1410 c-11 -18 7 -60 25 -60 25 0 32 14 24 45 -6 25 -37 35 -49
15z"/>
<path d="M545 1398 c-10 -6 -33 -14 -50 -18 -34 -7 -42 -27 -22 -54 12 -16 16
-17 38 -5 13 7 28 12 33 11 4 -2 17 0 27 3 15 5 18 12 13 33 -9 37 -16 43 -39
30z"/>
<path d="M1011 1364 c-6 -15 -10 -27 -9 -28 32 -13 106 -54 116 -63 7 -7 18
-13 23 -13 12 0 31 49 23 61 -10 16 -44 10 -45 -8 0 -12 -2 -13 -6 -5 -3 7 0
19 7 27 9 11 7 16 -10 25 -12 6 -24 9 -27 6 -3 -3 -12 1 -20 9 -21 22 -38 18
-52 -11z"/>
<path d="M370 1309 l-42 -31 22 -23 c18 -19 27 -22 41 -14 20 10 26 39 9 39
-5 0 -10 5 -10 12 0 6 9 3 20 -7 23 -21 36 -15 22 12 -5 10 -7 24 -5 31 8 20
-11 14 -57 -19z"/>
<path d="M656 1304 c-229 -55 -403 -256 -423 -489 -26 -307 232 -585 544 -585
103 0 166 16 265 67 330 169 391 618 119 873 -133 125 -329 177 -505 134z
m265 -38 c94 -29 164 -70 228 -134 296 -299 123 -798 -299 -863 -148 -23 -317
36 -430 150 -102 103 -150 214 -150 348 0 74 18 165 31 157 5 -3 6 -16 3 -28
-5 -21 -1 -24 38 -29 24 -3 52 -9 64 -12 18 -6 24 0 38 35 16 40 15 60 -4 60
-4 0 -13 -14 -19 -32 -12 -33 -26 -31 -26 5 0 27 -22 33 -30 8 -3 -12 -11 -21
-16 -21 -5 0 -3 13 6 29 18 36 3 51 -26 25 -18 -16 -19 -16 -19 1 0 24 54 110
99 158 51 54 133 106 210 133 78 28 229 33 302 10z"/>
<path d="M765 1263 c-5 -5 -10 -35 -10 -68 0 -53 2 -60 20 -60 14 0 21 8 23
28 2 20 9 27 24 27 15 0 19 5 15 20 -3 13 0 20 9 20 15 0 19 16 6 24 -16 10
-78 16 -87 9z"/>
<path d="M870 1238 c-1 -13 -7 -41 -15 -63 -11 -30 -11 -41 -2 -47 22 -14 37
-8 38 15 1 20 2 20 6 2 5 -21 19 -39 31 -41 4 0 15 -4 25 -8 10 -5 23 -3 31 3
10 8 16 8 26 -3 6 -9 9 -19 6 -24 -7 -13 32 -62 49 -62 7 0 15 7 19 15 12 32
28 15 21 -24 -4 -22 -2 -42 4 -45 12 -8 100 45 101 61 0 23 -22 25 -45 3 l-23
-21 8 42 c4 24 6 49 3 56 -6 14 -33 18 -33 5 0 -5 -14 -18 -30 -31 l-31 -22 7
65 c6 59 5 66 -11 66 -9 0 -29 -8 -43 -19 -53 -36 -72 -43 -72 -26 0 8 7 15
15 15 19 0 37 34 29 55 -7 17 -44 39 -86 49 -24 5 -28 3 -28 -16z m69 -32 c14
-17 0 -29 -23 -20 -17 7 -20 16 -9 27 10 11 19 8 32 -7z"/>
<path d="M573 1213 c-18 -9 -33 -20 -33 -24 0 -17 56 -98 67 -99 23 0 63 23
63 38 0 10 -7 12 -24 8 -30 -7 -42 7 -21 24 20 16 8 32 -17 24 -14 -4 -18 -2
-14 5 4 6 14 11 22 11 8 0 14 7 14 15 0 19 -16 18 -57 -2z"/>
<path d="M682 1203 c-32 -6 -22 -28 14 -28 19 0 30 6 32 18 3 17 -2 18 -46 10z"/>
<path d="M482 1158 c-8 -8 -4 -21 20 -52 47 -61 46 -60 62 -47 13 11 10 19
-22 62 -39 53 -42 55 -60 37z"/>
<path d="M423 1095 c-12 -9 -31 -28 -42 -44 l-21 -29 50 -36 c28 -20 52 -36
55 -36 10 0 55 76 55 93 0 21 -43 67 -62 67 -8 0 -23 -7 -35 -15z m47 -40 c13
-16 10 -47 -6 -52 -6 -2 -22 5 -35 16 -20 16 -21 21 -10 35 17 20 35 20 51 1z"/>
<path d="M660 1088 c-38 -14 -74 -41 -116 -82 -73 -74 -94 -126 -94 -235 0
-63 5 -86 29 -136 32 -68 95 -132 161 -167 38 -20 60 -23 145 -23 86 0 106 4
145 24 130 68 191 169 191 313 0 57 4 78 12 75 7 -2 11 -11 9 -20 -1 -9 7 -21
18 -27 24 -13 26 -36 5 -48 -9 -4 -18 -24 -21 -44 l-6 -36 57 -12 c38 -8 60
-9 67 -2 17 17 1 29 -49 37 l-48 7 50 25 c77 39 81 64 14 85 -29 8 -44 20 -55
44 -19 40 -12 54 27 54 24 0 29 -4 29 -24 0 -27 17 -43 31 -29 5 5 4 24 -1 45
-19 66 -97 69 -128 5 -17 -35 -27 -34 -43 6 -20 48 -97 125 -154 155 -71 36
-197 41 -275 10z m251 -39 c55 -24 118 -87 151 -149 32 -63 32 -185 0 -248
-60 -113 -156 -175 -275 -176 -121 0 -230 69 -278 177 -34 76 -33 183 4 253
26 52 87 113 140 141 71 36 175 37 258 2z"/>
<path d="M664 848 c-48 -23 -59 -104 -19 -143 28 -29 42 -31 73 -9 25 17 30
66 8 86 -10 10 -11 17 -2 31 9 15 7 21 -8 33 -23 16 -24 16 -52 2z m31 -38 c3
-5 -1 -10 -10 -10 -9 0 -13 5 -10 10 3 6 8 10 10 10 2 0 7 -4 10 -10z m3 -68
c2 -14 -2 -22 -12 -22 -19 0 -29 17 -22 36 8 22 30 12 34 -14z"/>
<path d="M792 844 c-14 -10 -22 -25 -22 -42 1 -15 -2 -40 -6 -55 -9 -37 18
-67 61 -67 43 0 70 30 61 67 -4 15 -10 43 -13 61 -4 23 -13 36 -30 43 -30 11
-24 12 -51 -7z m38 -34 c0 -5 -4 -10 -10 -10 -5 0 -10 5 -10 10 0 6 5 10 10
10 6 0 10 -4 10 -10z m15 -74 c0 -22 -14 -29 -34 -17 -19 12 -6 43 16 39 10
-2 18 -12 18 -22z"/>
<path d="M921 824 c-25 -31 -27 -64 -6 -103 26 -51 67 -55 96 -8 22 35 21 95
-1 122 -20 24 -66 18 -89 -11z m63 -29 c8 -32 -3 -77 -18 -72 -12 4 -21 61
-12 83 8 22 23 16 30 -11z"/>
<path d="M549 833 c-1 -5 0 -37 1 -73 2 -69 11 -90 32 -72 9 7 12 32 10 81 -3
62 -6 71 -23 71 -10 0 -20 -3 -20 -7z"/>
<path d="M385 830 c-11 -5 -34 -9 -52 -9 -42 -1 -50 -17 -25 -51 18 -23 19
-29 7 -34 -20 -7 -19 -42 1 -50 9 -3 38 -6 65 -6 37 0 49 4 49 15 0 11 -11 15
-40 15 -37 0 -39 1 -28 20 10 15 10 22 0 32 -20 20 -14 28 22 28 34 0 47 13
38 38 -5 14 -9 14 -37 2z"/>
<path d="M345 645 c-30 -29 -32 -54 -5 -83 29 -30 63 -37 93 -17 60 39 30 125
-43 125 -11 0 -32 -11 -45 -25z m85 -35 c0 -22 -34 -44 -56 -36 -17 7 -19 42
-1 49 30 13 57 7 57 -13z"/>
<path d="M1115 639 c-20 -38 -16 -68 12 -86 20 -14 24 -13 48 11 l25 25 -6
-24 c-9 -37 21 -32 36 6 24 57 -22 90 -61 45 -30 -35 -43 -33 -24 4 19 37 19
50 0 50 -8 0 -22 -14 -30 -31z"/>
<path d="M1055 540 c-18 -19 -25 -35 -21 -46 6 -15 9 -15 30 5 26 24 38 18 30
-15 -4 -14 -2 -24 5 -24 6 0 8 -6 5 -14 -3 -8 0 -17 7 -22 12 -7 69 46 69 64
0 4 -22 24 -49 44 l-49 37 -27 -29z"/>
<path d="M465 550 c-8 -14 3 -30 21 -30 17 0 19 -31 2 -48 -19 -19 -49 -14
-55 8 -7 26 -33 26 -33 1 0 -22 44 -61 70 -61 29 0 70 39 70 66 0 14 -11 36
-25 49 -26 27 -40 31 -50 15z"/>
<path d="M757 391 c-10 -4 -18 -11 -17 -15 1 -5 -3 -12 -10 -16 -8 -5 -8 -14
0 -34 5 -15 14 -24 20 -21 5 3 10 1 10 -4 0 -6 7 -11 15 -11 8 0 15 4 15 10 0
5 6 7 14 4 8 -3 16 4 19 18 7 27 -1 68 -13 68 -5 0 -14 2 -22 4 -7 3 -21 1
-31 -3z"/>
<path d="M1187 1256 c-12 -17 -13 -26 -4 -35 16 -16 42 -14 57 4 10 13 10 19
-5 35 -23 26 -29 25 -48 -4z m33 -16 c0 -5 -5 -10 -11 -10 -5 0 -7 5 -4 10 3
6 8 10 11 10 2 0 4 -4 4 -10z"/>
<path d="M310 1251 c0 -6 5 -13 10 -16 21 -13 9 -24 -19 -19 -23 5 -32 2 -41
-15 -6 -12 -8 -27 -4 -33 4 -6 3 -8 -3 -5 -12 8 -49 -30 -40 -40 4 -3 -2 -12
-13 -20 -27 -19 -25 -37 5 -51 36 -16 36 -16 32 23 -4 28 -2 33 9 24 14 -12
38 -3 29 11 -3 4 3 11 13 15 16 7 15 8 -3 15 l-20 9 20 0 c11 1 33 17 48 37
28 34 28 36 11 55 -18 20 -34 25 -34 10z"/>
<path d="M1243 1218 c-18 -19 -20 -26 -9 -40 17 -23 21 -23 47 3 21 21 21 22
2 40 -19 19 -19 19 -40 -3z"/>
<path d="M1292 1144 c-28 -19 -28 -23 3 -56 14 -15 25 -34 25 -43 0 -22 16
-19 34 7 24 34 20 48 -13 48 -33 0 -51 17 -27 26 16 6 23 34 8 34 -4 0 -18 -7
-30 -16z"/>
<path d="M1175 320 c-10 -11 -26 -22 -36 -25 -11 -4 -19 -13 -19 -21 0 -8 -3
-13 -7 -13 -14 2 -28 -1 -42 -10 -11 -7 -10 -13 4 -35 20 -31 29 -32 53 -8 10
9 27 22 37 28 24 14 31 34 12 34 -9 0 -17 -5 -19 -12 -3 -9 -6 -9 -12 0 -4 7
-2 12 3 12 6 0 11 6 11 14 0 17 22 15 44 -3 19 -16 35 -6 18 11 -7 7 -12 20
-12 30 0 23 -13 23 -35 -2z"/>
<path d="M326 311 c-18 -19 -14 -47 5 -36 5 4 9 0 9 -7 0 -8 14 -22 30 -32 30
-17 31 -17 50 6 l19 23 -37 32 c-43 38 -53 40 -76 14z"/>
<path d="M423 234 c-8 -20 8 -48 31 -52 17 -4 41 42 30 59 -9 15 -54 10 -61
-7z"/>
<path d="M492 205 c-7 -14 -12 -28 -12 -30 0 -8 28 -6 33 3 2 4 3 2 1 -4 -3
-15 16 -34 33 -34 8 0 18 10 24 23 9 21 9 20 6 -5 -5 -32 9 -36 29 -10 12 16
13 15 14 -5 0 -19 6 -23 33 -24 17 0 44 -2 59 -4 24 -3 26 -1 25 28 -2 32 -2
32 -82 46 -44 7 -92 14 -106 15 -17 1 -25 6 -22 14 10 24 -24 12 -35 -13z"/>
<path d="M1043 210 c6 -25 -9 -36 -21 -14 -13 23 -56 14 -60 -12 -5 -34 18
-45 61 -30 52 17 61 29 48 55 -15 27 -35 27 -28 1z m-43 -30 c0 -5 -4 -10 -10
-10 -5 0 -10 5 -10 10 0 6 5 10 10 10 6 0 10 -4 10 -10z"/>
<path d="M896 182 c-3 -6 -14 -8 -24 -6 -27 7 -41 -8 -35 -39 6 -31 17 -34 40
-11 13 13 18 13 25 2 7 -9 11 -10 14 -2 3 7 13 10 24 7 16 -4 18 -1 11 23 -7
29 -43 45 -55 26z"/>
<path d="M752 140 c1 -33 25 -48 44 -28 20 20 6 58 -21 58 -20 0 -24 -5 -23
-30z"/>
</g>
</svg>
